<?xml version="1.0" encoding="UTF-8"?>
<svg id="Capa_1" data-name="Capa 1" xmlns="http://www.w3.org/2000/svg" viewBox="0 0 500 133.13">
  <defs>
    <style>
      .cls-1 {
        fill: #f60;
        stroke-width: 0px;
      }
    </style>
  </defs>
  <g>
    <path class="cls-1" d="m154.32,36.48c.06,12.79-14.23,10.12-22.97,10.34V14.25c4.17.32,15.65-1.08,18.58,1.74,3.77,3.22,2.38,10.79-3.14,11.26,4.7.64,7.63,4.28,7.54,9.24m-9.21-13.88c.24-3.95-3.76-3.76-6.68-3.67v7.21c2.93.11,6.82.26,6.68-3.54m1.95,13.51c.07-5.27-4.09-5.94-8.62-5.66v11.68c4.89.27,8.72-.21,8.62-6.02"/>
    <path class="cls-1" d="m179.04,46.82h-6.46l-.13-3.24c-2.18,4.35-10.3,4.54-13.31,1.47-2.97-2.81-3-10.58.71-13.14,2.74-2.29,9.19-3.35,12.51-.79v-2.44c-.8-4.92-8.71-2.94-11.67-1.27v-4.25c4.3-1.84,12.5-2.86,16.05.49,4.04,3.18,1.72,18.53,2.3,23.17Zm-6.63-8.31c1-6.61-8.68-7.33-8.41-.63-1.15,6.26,8.59,6.6,8.41.63"/>
    <path class="cls-1" d="m205.44,46.82h-6.89v-17.42c-.36-3.89-6.11-2.99-7.78-.43v17.85h-6.89v-24.84h6.63l.13,3.96c1.82-4.33,9.65-6.23,13.02-2.52,3.29,3.02,1.24,19.24,1.78,23.39Z"/>
    <path class="cls-1" d="m228.65,45.29c-8.93,4.9-21.06-.09-19.84-11.51-.62-10.33,11.81-15.48,19.84-10.42v4.32c-6.09-4.45-12.9-1.28-12.34,6.81-.5,9.02,6.29,9.47,12.34,6.13v4.68Z"/>
    <path class="cls-1" d="m255.03,35.08c.78,11.69-14.1,15.57-21.57,8.79-2.67-2.38-3.62-6.39-3.39-10.34-.05-7.33,5.06-12.15,12.49-12.04,8.16-.24,13.12,5.83,12.47,13.59Zm-7.11-.59c.02-5.03-.85-8.63-5.36-8.94-4.51.28-5.32,4.12-5.31,8.94.12,5.34.65,8.24,5.31,8.57,4.47-.39,5.29-3.22,5.36-8.57"/>
    <path class="cls-1" d="m282.26,35.1c.18,4.41-4.25,4.76-7.75,4.54v7.18h-4v-17.71c5.22.27,12.47-1.83,11.75,5.99Zm-4.09.26c.21-3.21-.36-3.85-3.67-3.67v5.53c1.43.07,3.7.1,3.67-1.85"/>
    <polygon class="cls-1" points="302.98 29.12 297.1 39.33 297.1 46.83 293.1 46.83 293.1 39.71 287.11 29.12 291.78 29.12 295.67 36.22 299.81 29.12 302.98 29.12"/>
    <polygon class="cls-1" points="326.85 46.83 323.19 46.83 323.19 36.66 317.75 46.83 315.69 46.83 310.6 36.66 310.6 46.83 307.84 46.83 307.84 29.12 310.8 29.12 317.46 42.02 324.22 29.12 326.85 29.12 326.85 46.83"/>
    <polygon class="cls-1" points="345.29 46.83 334.02 46.83 334.02 29.12 344.81 29.12 344.81 31.76 338.01 31.76 338.01 36.51 343.29 36.51 343.29 39.19 338.01 39.19 338.01 44.19 345.29 44.19 345.29 46.83"/>
    <polygon class="cls-1" points="169.11 116.82 131.35 116.82 131.35 57.48 167.49 57.48 167.49 66.33 144.74 66.33 144.74 82.25 162.41 82.25 162.41 91.22 144.74 91.22 144.74 107.97 169.11 107.97 169.11 116.82"/>
    <path class="cls-1" d="m207.72,114.42c-8.06,5.33-23.17,4.02-29.64-2.3-4.78-3.91-6.85-11.28-6.49-18.97-.86-19.25,21.06-28.56,36.14-19.27v7.98c-2.64-2.34-6.81-3.67-10.63-3.62-8.97,0-12.06,7.74-11.85,16.2.2,9.04,1.56,14.45,10.47,14.71,3.69.1,9.52-1.37,12.01-3.38v8.65Z"/>
    <path class="cls-1" d="m257.34,95.54c1.46,21.45-25.55,28.87-39.29,16.24-8.47-7.8-8.48-27.27-.08-35.23,7.42-8.19,25.97-8.19,33.32.04,4.77,4.57,6.45,11.8,6.04,18.95Zm-12.95-1.1c.03-9.24-1.49-15.93-9.76-16.52-8.27.54-9.68,7.67-9.68,16.51.24,9.81,1.12,15.2,9.68,15.85,8.2-.73,9.63-6.01,9.76-15.85"/>
    <path class="cls-1" d="m290.51,59.64l-3.31,6.68c-2.16-1.98-7.26-3.03-9.03-.35-.73,1.08-1,3.61-.93,5.67h8.46v6.92h-8.58v38.25h-12.56v-38.33h-5.98v-6.84h6.22c-.86-14.66,15.06-18.49,25.71-12"/>
    <path class="cls-1" d="m330.98,116.82h-12.05l-.24-7.08c-3.54,4.62-8.94,8.19-15.59,7.98-8.62-.26-11.41-5.21-11.42-14.51v-31.57s12.56,0,12.56,0c.65,3.39-1.62,33.3,1.5,35.18,3.9,2.72,9.97.7,12.68-2.91v-32.27h12.56v45.17Z"/>
    <path class="cls-1" d="m366.84,78.49h-11.97c.46,3.79-1.19,26.95,1.18,29.75,2.01,2.62,7.85,1.69,10.79.48v7.16c-6.24,2.3-16.21,3.33-20.9-2.19-6.14-5.57-2.83-27.64-3.62-35.27h-5.39v-6.37l5.86-.31,4.21-14.91h7.87v14.83h11.97v6.84Z"/>
    <path class="cls-1" d="m412.1,116.82h-12.05l-.24-7.08c-3.54,4.62-8.94,8.19-15.59,7.98-8.62-.26-11.41-5.21-11.42-14.51v-31.57s12.56,0,12.56,0c.65,3.39-1.62,33.3,1.5,35.18,3.9,2.72,9.97.7,12.68-2.91v-32.27h12.56v45.17Z"/>
    <path class="cls-1" d="m452,85.1h-11.61c-.06-2.61-.86-4.76-3.98-4.68-2.56-.11-5.01,1.68-5.79,3.81v32.58s-12.56,0-12.56,0v-45.17h12.09l.24,6.85c5.98-13.57,24.77-9.44,21.61,6.61"/>
    <path class="cls-1" d="m499.94,95.54c1.46,21.45-25.56,28.87-39.29,16.24-8.47-7.8-8.48-27.27-.08-35.23,7.42-8.19,25.97-8.19,33.32.04,4.77,4.57,6.44,11.8,6.04,18.95Zm-12.95-1.1c.03-9.24-1.49-15.93-9.76-16.52-8.27.54-9.68,7.67-9.68,16.51.24,9.81,1.12,15.2,9.68,15.85,8.2-.73,9.63-6.01,9.76-15.85"/>
  </g>
  <g>
    <polygon class="cls-1" points="116.96 24 117.04 23.92 116.97 23.99 116.96 24"/>
    <path class="cls-1" d="m77.78,83.49v9.82l14.85-14.83c.19-.19.3-.45.3-.72v-14.94l-11.22,11.22c-2.53,2.53-3.93,5.89-3.93,9.46Z"/>
    <path class="cls-1" d="m59.33,45.3c.09,0,.28,0,.37,0,7.14,0,12.95,5.81,12.95,12.94,0,.14-.02.27-.02.41l16.36-16.25c1.99-2.12,4.87-3.07,7.79-2.57,1.13.2,2.17.64,3.1,1.23l17.08-17.08c1.19-1.18,1.82-2.91,1.48-4.78-.39-2.13-2.12-3.85-4.26-4.22-1.97-.35-3.79.4-4.94,1.71l.08-.09-8.68,8.63-14.4,14.29h0c-2.16,1.79-4.92,2.87-7.93,2.87s-5.75-1.07-7.91-2.84c-.01-.01-.02-.02-.03-.03l-7.96-7.93c-2.23,2.46-3.46,5.59-3.46,8.93v4.78"/>
    <path class="cls-1" d="m78.32,38.58c5.29,0,9.58-4.28,9.58-9.56s-4.29-9.57-9.58-9.57-9.58,4.29-9.58,9.57,4.29,9.56,9.58,9.56Z"/>
    <g>
      <path class="cls-1" d="m99.06,52.15l.09-.09-.08.08s0,0-.01.01Z"/>
      <path class="cls-1" d="m100.57,47.28c-.4-2.17-2.16-3.92-4.34-4.3-2.01-.35-3.86.4-5.03,1.75l.1-.11-8.85,8.81-14.67,14.55c-2.2,1.82-5.01,2.92-8.08,2.92s-5.86-1.09-8.05-2.89l-.03-.03-23.66-23.51.31.34c-.98-1.17-2.46-1.91-4.11-1.91-2.99,0-5.42,2.42-5.42,5.4,0,1.45.57,2.76,1.5,3.73l-.04-.04,14.71,14.55c6.46,6.46,10.1,15.22,10.1,24.35v39.59c0,2.36,2.86,3.54,4.53,1.87l24.75-24.72c.19-.19.3-.46.3-.73v-23.41c0-4.4,1.75-8.61,4.86-11.72l19.63-19.63c1.2-1.2,1.85-2.96,1.5-4.86Z"/>
      <path class="cls-1" d="m59.71,67.98c5.39,0,9.75-4.36,9.75-9.74s-4.36-9.75-9.75-9.75-9.76,4.37-9.76,9.75,4.37,9.74,9.76,9.74Z"/>
    </g>
    <g>
      <path class="cls-1" d="m30.22,42.2l16.55,16.45c0-.14-.02-.27-.02-.41,0-5.76,3.79-10.66,9.02-12.33v-5.38c0-4.39,1.75-8.6,4.86-11.7l19.59-19.59c1.21-1.2,1.86-2.96,1.51-4.87-.39-2.17-2.16-3.91-4.33-4.29-2-.35-3.86.4-5.03,1.74l.02-.03-8.76,8.71-14.65,14.53c-2.19,1.82-5,2.92-8.07,2.92s-5.85-1.09-8.04-2.89l-.03-.03L9.13,1.49l.39.41C8.53.74,7.06,0,5.41,0,2.42,0,0,2.42,0,5.4c0,1.33.49,2.54,1.29,3.49l-.04-.04.06.06c.2.23.42.45.66.65l14.19,14.07c4.5,4.49,7.61,10.09,9.1,16.16,1.88.24,3.63,1.08,4.98,2.43h0Z"/>
      <path class="cls-1" d="m32.64,68.81l-6.42-6.35v40.81c0,2.36,2.85,3.54,4.52,1.87l11.05-11.04v-3.2c0-8.34-3.25-16.19-9.16-22.09Z"/>
      <path class="cls-1" d="m40.91,24.28c5.38,0,9.74-4.35,9.74-9.73s-4.36-9.73-9.74-9.73-9.75,4.36-9.75,9.73,4.37,9.73,9.75,9.73Z"/>
    </g>
  </g>
</svg>